<svg id="デザイン" xmlns="http://www.w3.org/2000/svg" viewBox="0 0 807.7 243.4"><defs><style>.cls-1,.cls-2{fill:#003a9b;}.cls-2{fill-rule:evenodd;}</style></defs><path class="cls-1" d="M445.45,49.74c-6,4.41-12.35,7.84-14.95,7.84A4.41,4.41,0,0,1,426.2,53c0-2.54,1.09-3,6.33-5.45,8.3-4,17.48-12.09,22-19.41,1.86-3.06,2.38-3.89,4.46-3.89,2.54,0,4.88,2,4.88,4.21,0,3.47-6.85,11.1-9.65,13.75v26.3c0,2.23-1.56,3.48-4.36,3.48s-4.41-1.25-4.41-3.48Z"/><path class="cls-1" d="M491.84,43c-1.19,0-2.18-.46-3.78-1.71-2.55-2.07-5-4.1-8.15-6.33-1.35-1-1.87-1.76-1.87-3.06a5,5,0,0,1,4.62-4.77c1.45,0,2.59.57,6.07,3.06,6,4.25,7.68,6,7.68,7.89C496.41,40.45,494,43,491.84,43Zm30.72-1.65c0,1-.67,2.38-2.28,4.82C508.14,64,487.54,70.44,483.54,70.44c-2.49,0-4.3-2.07-4.3-4.93,0-3.32,2.12-3.89,5.6-4.87A53,53,0,0,0,505.7,49.12a45.44,45.44,0,0,0,7.94-9.81c1.19-1.92,2.17-2.59,3.78-2.59C520,36.72,522.56,39,522.56,41.34Z"/><path class="cls-1" d="M600.88,55c-2.86,2.13-8.82,5.87-11.68,5.87a4,4,0,0,1-3.78-4.26,3.39,3.39,0,0,1,2.17-3.32l3.12-1.45c6.54-3.22,14.06-9.81,17.54-15.46,1.55-2.49,2.38-3.17,4-3.17,2.34,0,4.57,1.87,4.57,3.84,0,2.59-4.78,8-7.94,11.16V69.15c0,2-1.45,3.16-4,3.16s-4-1.14-4-3.16Z"/><path class="cls-1" d="M635.34,52c-2.18,0-3.37-1.5-3.37-4.2s1.19-4.25,3.37-4.25h39.95c2.18,0,3.38,1.5,3.38,4.25s-1.2,4.2-3.38,4.2Z"/><path class="cls-1" d="M704.93,37.44a121.76,121.76,0,0,1,13.49,5.66c4.41,2.28,5.29,3.16,5.29,5.39,0,2.75-1.92,4.93-4.25,4.93a6.48,6.48,0,0,1-3-.93,86.08,86.08,0,0,0-11.57-5.65V68.11c0,2.28-1.56,3.53-4.41,3.53s-4.41-1.25-4.41-3.53V27.69c0-2.28,1.56-3.53,4.41-3.53s4.41,1.25,4.41,3.53Zm9.29-9.28c1.09,0,1.71.57,3.63,3.26,1.61,2.34,2,3.17,2,4a3,3,0,0,1-3.11,2.6,2.4,2.4,0,0,1-2.18-1.4c-1.14-1.72-1.61-2.39-2.7-3.84a3.35,3.35,0,0,1-.83-2A3.08,3.08,0,0,1,714.22,28.16Zm6.33-3.74c1.09,0,1.87.68,3.89,3.53,1.4,1.92,1.92,2.85,1.92,3.68a3,3,0,0,1-3.16,2.65,2.32,2.32,0,0,1-2-1.19,43.1,43.1,0,0,0-2.85-4,3,3,0,0,1-.88-2A3.11,3.11,0,0,1,720.55,24.42Z"/><path class="cls-1" d="M538,34.64h24c2.08,0,3.22-1.45,3.22-4a6.51,6.51,0,0,0-.1-1,3.36,3.36,0,0,0-1.82-2.8h0a2.63,2.63,0,0,0-1-.24v0a2.77,2.77,0,0,0-.3,0H538c-2,0-3.22,1.45-3.22,4S536,34.64,538,34.64Z"/><path class="cls-1" d="M572.72,21.93A2.69,2.69,0,0,0,570,24.32c0,.62.11.88,1.4,2.59.58.83.89,1.3,1.46,2.28.78,1.35,1.19,1.66,2.07,1.66a2.66,2.66,0,0,0,2.75-2.54C577.65,27.27,574.85,21.93,572.72,21.93Z"/><path class="cls-1" d="M567.54,24.32a2.68,2.68,0,0,0-2.75,2.38c0,.63.11.89,1.4,2.6.57.83.88,1.3,1.46,2.28.77,1.35,1.19,1.66,2.07,1.66a2.67,2.67,0,0,0,2.75-2.54C572.47,29.66,569.67,24.32,567.54,24.32Z"/><path class="cls-1" d="M571.45,39.16h-39.8c-2.07,0-3.22,1.45-3.22,4s1.15,4,3.22,4h17.07c-.62,8.3-3,12.35-9.18,16.08-2.18,1.3-2.8,2.18-2.8,3.84a4.68,4.68,0,0,0,4.46,4.67c2.8,0,7.26-3.21,10.63-7.68s5.09-9.6,5.56-16.91h14.06c2.07,0,3.21-1.46,3.21-4S573.52,39.16,571.45,39.16Z"/><path class="cls-2" d="M779.87,57.44c-2.69-3-6.28-4.53-11.13-4.53s-8.55,1.6-11.14,4.92-3.92,8-3.92,14.34v45.74a63.84,63.84,0,0,0-18.45-14.14,45.83,45.83,0,0,0-13.71-4,69,69,0,0,0-9.47-.62q-23.65,0-38.34,16.26t-14.54,45.23a84.59,84.59,0,0,0,3.7,25.48,61.07,61.07,0,0,0,10.72,20.45A50.33,50.33,0,0,0,690.49,220a48.14,48.14,0,0,0,21.12,4.71,51.87,51.87,0,0,0,9.88-.89,38.86,38.86,0,0,0,6-1.43A51.2,51.2,0,0,0,741,215.59,78.76,78.76,0,0,0,753.65,204v3c0,5.71,1.44,10,4.22,13.14a15.25,15.25,0,0,0,21.64.21c2.77-3,4.22-7.43,4.22-13.34V70.58C783.78,64.85,782.44,60.44,779.87,57.44Zm-32,126.18a30.07,30.07,0,0,1-11,12.94,28.78,28.78,0,0,1-15.27,4.21h-.1a28.19,28.19,0,0,1-15.26-4.4,30.48,30.48,0,0,1-11-13.24c-2.67-5.92-4-13-4-21.47,0-7.93,1.23-14.93,3.81-20.85A30.85,30.85,0,0,1,705.58,127a26,26,0,0,1,15.65-4.82h.31a26.71,26.71,0,0,1,15.15,4.71,32.48,32.48,0,0,1,11.13,13.54c2.78,5.92,4.12,13,4.12,21.26C751.94,170.48,750.6,177.81,747.82,183.62Zm-100.08,1.31a11.8,11.8,0,0,0-7.94-2.6,10.89,10.89,0,0,0-6.91,2c-4,3.61-7.21,6.52-9.7,8.63a88.44,88.44,0,0,1-8.23,5.9,33.25,33.25,0,0,1-9.06,4,38.4,38.4,0,0,1-10.41,1.3,18.17,18.17,0,0,1-2.38-.1,28.62,28.62,0,0,1-13.18-4,29.86,29.86,0,0,1-11.35-11.93,41.62,41.62,0,0,1-4.32-18.66h62.15c8.34,0,14.82-1.21,19.37-3.41,4.64-2.41,6.9-7.43,6.9-15.15A51.54,51.54,0,0,0,626,106.41c-8.88-5.12-19.48-7.63-32-7.63h-.92A74.28,74.28,0,0,0,568,103.2,56,56,0,0,0,548.08,116a57.45,57.45,0,0,0-12.15,20.16,75.83,75.83,0,0,0-4.24,25.47c0,19.47,5.68,34.71,17,46,10.7,10.74,25.55,16.36,44.4,17,1,.1,2.15.1,3.3.1a75.06,75.06,0,0,0,23.69-3.4,60.53,60.53,0,0,0,17.12-8.52A41.63,41.63,0,0,0,647.41,202c2.27-3.7,3.41-7,3.41-9.74A9,9,0,0,0,647.74,184.93Zm-74.2-56.68c5.07-5.32,11.55-7.93,19.49-7.93h.11c8.23,0,14.94,2.61,20,7.82s8,13.15,8.76,23.77H564.28C565.3,141.49,568.4,133.56,573.54,128.25Zm-61.12,54.06a10.93,10.93,0,0,0-7,2c-3.92,3.6-7.22,6.52-9.69,8.62a85.69,85.69,0,0,1-8.15,5.91,33.16,33.16,0,0,1-9.17,4,37.84,37.84,0,0,1-10.41,1.3,18,18,0,0,1-2.36-.1,28.73,28.73,0,0,1-13.2-4,29.64,29.64,0,0,1-11.22-11.93,40.5,40.5,0,0,1-4.45-18.65H499c8.25,0,14.74-1.22,19.38-3.42,4.52-2.41,6.8-7.42,6.8-15.14a51,51,0,0,0-6.59-24.77c-4.43-8.05-11.13-14.66-20-19.76S479,98.77,466.67,98.77h-1a74.77,74.77,0,0,0-25.15,4.42A54.46,54.46,0,0,0,420.7,116a56,56,0,0,0-12.26,20.16,75.29,75.29,0,0,0-4.23,25.47c0,19.46,5.77,34.7,17.1,46,10.73,10.74,25.46,16.36,44.31,17,1.13.09,2.15.09,3.3.09a74.83,74.83,0,0,0,23.69-3.39,60.2,60.2,0,0,0,17.11-8.53A39.59,39.59,0,0,0,519.92,202c2.27-3.7,3.41-7,3.41-9.74a9.29,9.29,0,0,0-3-7.31A12,12,0,0,0,512.42,182.31Zm-66.37-54.06c5.05-5.32,11.55-7.93,19.49-7.93h.11c8.23,0,15,2.61,20,7.82s8,13.15,8.86,23.77H436.79C437.92,141.49,441,133.56,446.05,128.25ZM91.51,204.19V130.35c2.15.2,4.22.29,6.39.29a55.83,55.83,0,0,0,28.24-7.52v81c0,6.92-1.65,12-4.86,15.45a16.47,16.47,0,0,1-12.56,5.1,16.06,16.06,0,0,1-12.37-5.21C93.16,216.11,91.51,211,91.51,204.19ZM390.86,57.44c-2.68-3-6.38-4.53-11-4.53-4.85,0-8.56,1.6-11.14,4.92s-3.92,8-3.92,14.34v45.74a63.71,63.71,0,0,0-18.45-14.14,46.65,46.65,0,0,0-13.7-4,68.78,68.78,0,0,0-9.47-.62c-15.77,0-28.66,5.42-38.34,16.26s-14.54,25.89-14.54,45.23a87.89,87.89,0,0,0,3.61,25.48,60.92,60.92,0,0,0,10.83,20.45A50.14,50.14,0,0,0,301.62,220a48.14,48.14,0,0,0,21.12,4.71,53.4,53.4,0,0,0,9.88-.89,38.59,38.59,0,0,0,6-1.43,51,51,0,0,0,13.5-6.81A82.74,82.74,0,0,0,364.77,204v3c0,5.71,1.45,10,4.23,13.14a14.3,14.3,0,0,0,10.82,4.61,14.5,14.5,0,0,0,10.72-4.4c2.78-3,4.11-7.43,4.11-13.34V70.58C394.67,64.85,393.44,60.44,390.86,57.44ZM358.91,183.62q-4.17,8.72-11.12,12.94a28.45,28.45,0,0,1-15.16,4.21h-.09a28.11,28.11,0,0,1-15.25-4.4,29.93,29.93,0,0,1-11-13.24c-2.67-5.92-4-13-4-21.47a54.26,54.26,0,0,1,3.7-20.85c2.57-6,6.08-10.63,10.72-13.84a25.66,25.66,0,0,1,15.56-4.82h.4a26.2,26.2,0,0,1,15.06,4.71,31.85,31.85,0,0,1,11.22,13.54A51.5,51.5,0,0,1,363,161.66C363,170.48,361.58,177.81,358.91,183.62Zm-182-67.6v3.82c5.66-7.24,11.74-12.45,18.34-15.86a51.24,51.24,0,0,1,23-5,47,47,0,0,1,22.46,5.33,33.83,33.83,0,0,1,14.73,15,34.09,34.09,0,0,1,4.12,12.35,122.16,122.16,0,0,1,.93,16.75v57.49c0,6.21-1.56,10.92-4.43,14a14.59,14.59,0,0,1-11.34,4.8,14.81,14.81,0,0,1-11.55-4.9c-3-3.22-4.43-7.91-4.43-13.93V154.41q0-15.33-4.33-23.46c-2.88-5.4-8.76-8.12-17.4-8.12a26.56,26.56,0,0,0-15.46,4.92,28.55,28.55,0,0,0-10.3,13.64C179.71,146,179,154.53,179,167.28V205.9c0,6.31-1.54,10.92-4.53,14.14a15.27,15.27,0,0,1-11.55,4.71,14.45,14.45,0,0,1-11.33-4.9c-3-3.22-4.43-7.91-4.43-13.93v-89.4c0-5.91,1.34-10.32,4-13.14S157.36,99,162,99a14.61,14.61,0,0,1,7.52,1.91,14,14,0,0,1,5.47,5.81A20.5,20.5,0,0,1,176.94,116ZM91.71,27.25c21.44-7.52,45.86-7.12,64.2,8.32,3.41,3.1,7.3,7,8.86,11.63,1.86,5.83-6.49-.61-7.64-1.41a81.92,81.92,0,0,0-18.64-9.22c-36.06-10.83-70.18,8.74-91.4,39.12-8.86,13.43-14.63,27.58-19.37,43.13-.52,1.69-.92,3.91-1.86,5.4-.94,1.72-.4-4.59-.4-4.81a125.68,125.68,0,0,1,3.72-18.85C39,67.46,60.6,39.89,91.71,27.25Zm41.52,59.48a25.44,25.44,0,1,1-25.45-25.47A25.47,25.47,0,0,1,133.23,86.73Z"/></svg>