<svg width="32" height="32" viewBox="0 0 32 32" fill="none" xmlns="http://www.w3.org/2000/svg">
<path d="M0 16C0 7.16344 7.16344 0 16 0C24.8366 0 32 7.16344 32 16C32 24.8366 24.8366 32 16 32C7.16344 32 0 24.8366 0 16Z" fill="white"/>
<path fill-rule="evenodd" clip-rule="evenodd" d="M14.2344 25.3459V16.7828C14.4811 16.8053 14.7185 16.8166 14.9671 16.8166C16.1486 16.8166 17.2615 16.5032 18.2057 15.944V25.344C18.2057 26.1472 18.0165 26.7402 17.6492 27.1362C17.2838 27.5302 16.7978 27.7273 16.208 27.7273C15.6274 27.7273 15.1674 27.5302 14.789 27.123C14.4236 26.7289 14.2344 26.1359 14.2344 25.3459ZM14.2567 4.82504C16.7162 3.95241 19.5171 3.99932 21.6205 5.78962C22.0119 6.14993 22.4588 6.60407 22.6369 7.13891C22.8502 7.8145 21.8931 7.0676 21.7614 6.97565C21.0752 6.53276 20.3907 6.16119 19.6227 5.90597C15.4865 4.65051 11.5727 6.91935 9.13915 10.4436C8.12269 12.0012 7.46051 13.6414 6.91703 15.4448C6.85768 15.6419 6.81131 15.899 6.70373 16.0716C6.59615 16.2705 6.65736 15.5387 6.65736 15.5143C6.73897 14.7693 6.89292 14.0486 7.08397 13.328C8.20615 9.48844 10.688 6.29068 14.2567 4.82504ZM19.02 11.7235C19.02 13.3543 17.7123 14.6773 16.1004 14.6773C14.4885 14.6773 13.1827 13.3543 13.1827 11.7235C13.1827 10.0927 14.4885 8.7697 16.1004 8.7697C17.7123 8.7697 19.02 10.0908 19.02 11.7235Z" fill="#003A9B"/>
</svg>
