<?xml version="1.0" encoding="utf-8"?>
<!-- Generator: Adobe Illustrator 25.2.3, SVG Export Plug-In . SVG Version: 6.00 Build 0)  -->
<svg version="1.1" id="Layer_1" xmlns="http://www.w3.org/2000/svg" xmlns:xlink="http://www.w3.org/1999/xlink" x="0px" y="0px"
	 viewBox="0 0 800 213.3" style="enable-background:new 0 0 800 213.3;" xml:space="preserve">
<style type="text/css">
	.st0{fill-rule:evenodd;clip-rule:evenodd;fill:#003A9B;}
</style>
<g>
	<g>
		<path class="st0" d="M795.9,36.9c-2.8-3.2-6.6-4.8-11.7-4.8s-9,1.7-11.8,5.2c-2.7,3.4-4.1,8.5-4.1,15.1v48.2
			c-6.3-6.8-12.8-11.6-19.5-14.9c-4.1-2-9-3.5-14.5-4.2c-3.2-0.4-6.4-0.6-10-0.6c-16.6,0-30.1,5.7-40.4,17.2
			c-10.2,11.4-15.3,27.3-15.3,47.7c0,9.6,1.3,18.6,3.9,26.9c2.6,8.2,6.3,15.4,11.3,21.6c5,6.1,11,10.8,17.8,14.2
			c6.8,3.3,14.2,5,22.3,5c3.7,0,7.2-0.3,10.4-0.9c2.2-0.3,4.2-0.9,6.3-1.5c5.1-1.7,9.9-4.1,14.2-7.2c4.5-3.2,8.9-7.3,13.4-12.3v3.2
			c0,6,1.5,10.6,4.5,13.9c3.1,3.2,6.9,4.9,11.4,4.9c4.7,0,8.5-1.6,11.4-4.6c2.9-3.2,4.5-7.8,4.5-14.1V50.7
			C800,44.7,798.6,40,795.9,36.9z M762.1,170c-2.9,6.1-6.9,10.7-11.6,13.7c-4.9,3-10.2,4.4-16.1,4.4h-0.1c-5.9,0-11.2-1.6-16.1-4.6
			c-4.9-3.2-8.8-7.8-11.6-14c-2.8-6.2-4.2-13.8-4.2-22.6c0-8.4,1.3-15.8,4-22c2.6-6.3,6.4-11.2,11.2-14.6c4.9-3.5,10.3-5.1,16.5-5.1
			h0.3c5.8,0,11.1,1.7,16,5c4.9,3.3,8.8,8.1,11.7,14.3c2.9,6.2,4.3,13.8,4.3,22.4C766.4,156.1,765,163.8,762.1,170z M656.5,171.4
			c-2.1-1.8-4.9-2.7-8.4-2.7c-3.2,0-5.5,0.8-7.3,2.1c-4.2,3.8-7.6,6.9-10.2,9.1c-2.6,2.1-5.5,4.2-8.7,6.2c-3,1.9-6.3,3.4-9.6,4.2
			c-3.4,0.9-7,1.4-11,1.4c-0.9,0-1.7,0-2.5-0.1c-5-0.3-9.7-1.7-13.9-4.2c-5-2.9-8.9-7.1-12-12.6c-2.9-5.7-4.5-12.3-4.6-19.7H634
			c8.8,0,15.6-1.3,20.4-3.6c4.9-2.5,7.3-7.8,7.3-16c0-8.9-2.4-17.6-7.1-26.1c-4.7-8.5-11.6-15.5-21.1-20.8c-9.4-5.4-20.6-8-33.7-8
			h-1c-9.7,0.1-18.6,1.7-26.5,4.7c-8.3,3.2-15.2,7.7-21,13.5c-5.5,5.9-9.9,13-12.8,21.3s-4.5,17.3-4.5,26.9c0,20.5,6,36.6,17.9,48.6
			c11.3,11.3,26.9,17.3,46.8,17.9c1.1,0.1,2.3,0.1,3.5,0.1c9.3,0,17.7-1.2,25-3.6c7.3-2.4,13.3-5.4,18.1-9
			c4.8-3.7,8.4-7.5,10.7-11.4c2.4-3.9,3.6-7.4,3.6-10.3C659.8,175.8,658.7,173.1,656.5,171.4z M578.3,111.6
			c5.3-5.6,12.2-8.4,20.6-8.4h0.1c8.7,0,15.8,2.7,21.1,8.2c5.3,5.5,8.5,13.9,9.2,25.1h-60.8C569.6,125.5,572.8,117.2,578.3,111.6z
			 M513.8,168.6c-3.3,0-5.6,0.8-7.4,2.1c-4.1,3.8-7.6,6.9-10.2,9.1c-2.6,2.1-5.4,4.2-8.6,6.2c-3.1,1.9-6.3,3.4-9.7,4.2
			c-3.3,0.9-7,1.4-11,1.4c-0.9,0-1.7,0-2.5-0.1c-5-0.3-9.7-1.7-13.9-4.2c-4.9-2.9-8.9-7.1-11.8-12.6c-3.1-5.7-4.6-12.3-4.7-19.7
			h65.6c8.7,0,15.5-1.3,20.4-3.6c4.8-2.5,7.2-7.8,7.2-16c0-8.9-2.3-17.6-7-26.1c-4.7-8.5-11.7-15.5-21.1-20.8
			c-9.4-5.4-20.7-8-33.7-8h-1.1c-9.7,0.1-18.5,1.7-26.5,4.7c-8.3,3.2-15.2,7.7-20.9,13.5c-5.6,5.9-10,13-12.9,21.3
			c-3,8.3-4.5,17.3-4.5,26.9c0,20.5,6.1,36.6,18,48.6c11.3,11.3,26.8,17.3,46.7,17.9c1.2,0.1,2.3,0.1,3.5,0.1c9.4,0,17.7-1.2,25-3.6
			c7.3-2.4,13.3-5.4,18-9c4.9-3.7,8.4-7.5,10.8-11.4c2.4-3.9,3.6-7.4,3.6-10.3c0-3.3-1.1-5.9-3.2-7.7
			C520,169.5,517.1,168.6,513.8,168.6z M443.8,111.6c5.3-5.6,12.2-8.4,20.6-8.4h0.1c8.7,0,15.8,2.7,21.1,8.2
			c5.4,5.5,8.5,13.9,9.3,25.1H434C435.2,125.5,438.5,117.2,443.8,111.6z M69.8,191.7v-77.9c2.3,0.2,4.5,0.3,6.7,0.3
			c10.9,0,21.1-2.9,29.8-7.9v85.5c0,7.3-1.7,12.7-5.1,16.3c-3.4,3.6-7.8,5.4-13.3,5.4c-5.3,0-9.6-1.8-13-5.5
			C71.6,204.2,69.8,198.9,69.8,191.7z M385.6,36.9c-2.8-3.2-6.7-4.8-11.6-4.8c-5.1,0-9,1.7-11.8,5.2c-2.8,3.4-4.1,8.5-4.1,15.1v48.2
			c-6.3-6.8-12.8-11.6-19.5-14.9c-4.2-2-9-3.5-14.4-4.2c-3.1-0.4-6.4-0.6-10-0.6c-16.6,0-30.2,5.7-40.4,17.2
			c-10.2,11.4-15.3,27.3-15.3,47.7c0,9.6,1.3,18.6,3.8,26.9c2.6,8.2,6.4,15.4,11.4,21.6c5,6.1,11,10.8,17.8,14.2
			c6.9,3.3,14.2,5,22.3,5c3.6,0,7.1-0.3,10.4-0.9c2.2-0.3,4.2-0.9,6.3-1.5c5.1-1.7,9.9-4.1,14.2-7.2c4.5-3.2,8.8-7.3,13.4-12.3v3.2
			c0,6,1.5,10.6,4.5,13.9c2.9,3.2,6.9,4.9,11.4,4.9c4.5,0,8.4-1.6,11.3-4.6c2.9-3.2,4.3-7.8,4.3-14.1V50.7
			C389.6,44.7,388.3,40,385.6,36.9z M351.9,170c-2.9,6.1-6.9,10.7-11.7,13.7c-4.8,3-10.2,4.4-16,4.4h-0.1c-5.9,0-11.2-1.6-16.1-4.6
			c-5-3.2-8.8-7.8-11.6-14c-2.8-6.2-4.2-13.8-4.2-22.6c0-8.4,1.3-15.8,3.9-22c2.7-6.3,6.4-11.2,11.3-14.6c4.8-3.5,10.3-5.1,16.4-5.1
			h0.4c5.8,0,11.1,1.7,15.9,5c5,3.3,8.9,8.1,11.8,14.3c2.8,6.2,4.3,13.8,4.3,22.4C356.2,156.1,354.7,163.8,351.9,170z M159.9,98.7v4
			c6-7.6,12.4-13.1,19.3-16.7c7.1-3.5,15.1-5.3,24.2-5.3c8.8,0,16.7,1.9,23.7,5.6c7,3.7,12.1,9,15.5,15.9c2.3,4,3.7,8.4,4.3,13
			c0.6,4.5,1,10.5,1,17.7v60.6c0,6.6-1.6,11.5-4.7,14.8c-3,3.4-7.1,5.1-12,5.1c-5,0-9-1.7-12.2-5.2c-3.2-3.4-4.7-8.3-4.7-14.7v-54.3
			c0-10.8-1.5-19-4.6-24.7c-3-5.7-9.2-8.6-18.4-8.6c-6,0-11.4,1.8-16.3,5.2c-4.9,3.5-8.6,8.2-10.9,14.4c-1.6,4.9-2.4,13.9-2.4,27.3
			v40.7c0,6.7-1.6,11.5-4.8,14.9c-3.2,3.3-7.2,5-12.2,5c-4.9,0-8.8-1.7-12-5.2c-3.2-3.4-4.7-8.3-4.7-14.7V99.2
			c0-6.2,1.4-10.9,4.2-13.9c2.7-3.1,6.5-4.7,11.4-4.7c2.9,0,5.5,0.6,7.9,2c2.4,1.4,4.3,3.4,5.8,6.1
			C159.3,91.6,159.9,94.9,159.9,98.7z M70,5c22.6-7.9,48.4-7.5,67.7,8.8c3.6,3.3,7.7,7.4,9.3,12.3c2,6.1-6.8-0.6-8.1-1.5
			c-6.3-4-12.6-7.4-19.7-9.7c-38-11.4-74,9.2-96.4,41.3C13.6,70.3,7.5,85.2,2.5,101.6c-0.5,1.8-1,4.1-2,5.7c-1,1.8-0.4-4.8-0.4-5.1
			c0.8-6.8,2.2-13.3,3.9-19.9C14.4,47.5,37.2,18.4,70,5z M113.8,67.8c0,14.8-12,26.9-26.8,26.9c-14.8,0-26.8-12-26.8-26.9
			s12-26.9,26.8-26.9C101.8,40.9,113.8,52.9,113.8,67.8z"/>
	</g>
</g>
</svg>
